# xmcd
# 
# Track frame offsets:
#     150
#     16301
#     35256
#     50588
#     68276
#     84869
#     99280
#     117880
#     132175
#     152692
#     168680
#     191337
# 
# Disc length: 2764
# 
# Revision: 4
# Processed by: cddbd v1.5.2PL0 Copyright (c) Steve Scherf et al.
# Submitted via: fre:ac v1.1beta1pre4
# 
DISCID=870aca0c
DTITLE=Passenger - All the Little Lights
DYEAR=2012
DGENRE=Indie Folk
TTITLE0=Things That Stop You Dreaming
TTITLE1=Let Her Go
TTITLE2=Staring at the Stars
TTITLE3=All the Little Lights
TTITLE4=The Wrong Direction
TTITLE5=Circles
TTITLE6=Keep on Walking
TTITLE7=Patient Love
TTITLE8=Life's for the Living
TTITLE9=Holes
TTITLE10=Feather on the Clyde
TTITLE11=I Hate (Live from The Borderline, London)
EXTD=
EXTT0=
EXTT1=
EXTT2=
EXTT3=
EXTT4=
EXTT5=
EXTT6=
EXTT7=
EXTT8=
EXTT9=
EXTT10=
EXTT11=
PLAYORDER=
